<svg xmlns="http://www.w3.org/2000/svg" width="1088" height="680" viewBox="0 0 1088 680" fill="none">
  <title>Sprint planning</title>
  <desc>Minimal charcoal enterprise product illustration with white focal geometry.</desc>
  <defs>
    <radialGradient id="background_vignette" cx="0" cy="0" r="1" gradientUnits="userSpaceOnUse" gradientTransform="translate(544 330) rotate(90) scale(420 680)">
      <stop offset="0" stop-color="#121214"/>
      <stop offset=".62" stop-color="#0B0B0C"/>
      <stop offset="1" stop-color="#080809"/>
    </radialGradient>
    <radialGradient id="agent_core" cx="0" cy="0" r="1" gradientUnits="objectBoundingBox" gradientTransform="translate(.34 .28) rotate(45) scale(.78)">
      <stop offset="0" stop-color="#FFFFFF"/>
      <stop offset=".16" stop-color="#F4F5F7"/>
      <stop offset=".38" stop-color="#C8CBD1"/>
      <stop offset=".62" stop-color="#797C84"/>
      <stop offset=".82" stop-color="#37393F"/>
      <stop offset="1" stop-color="#15161A"/>
    </radialGradient>
    <radialGradient id="agent_aura" cx="0" cy="0" r="1" gradientUnits="objectBoundingBox" gradientTransform="translate(.5 .5) scale(.5)">
      <stop offset="0" stop-color="#FFFFFF" stop-opacity=".46"/>
      <stop offset=".36" stop-color="#E6E7EA" stop-opacity=".22"/>
      <stop offset=".7" stop-color="#A4A7AF" stop-opacity=".08"/>
      <stop offset="1" stop-color="#90939B" stop-opacity="0"/>
    </radialGradient>
    <radialGradient id="agent_specular" cx="0" cy="0" r="1" gradientUnits="objectBoundingBox" gradientTransform="translate(.5 .5) scale(.5)">
      <stop offset="0" stop-color="#FFFFFF" stop-opacity=".94"/>
      <stop offset=".36" stop-color="#FFFFFF" stop-opacity=".4"/>
      <stop offset="1" stop-color="#FFFFFF" stop-opacity="0"/>
    </radialGradient>
    <radialGradient id="scan_glow" cx="0" cy="0" r="1" gradientUnits="objectBoundingBox" gradientTransform="translate(.5 .5) scale(.5)">
      <stop offset="0" stop-color="#FFFFFF" stop-opacity=".22"/>
      <stop offset="1" stop-color="#FFFFFF" stop-opacity="0"/>
    </radialGradient>
    <linearGradient id="scan_fade" x1="544" y1="210" x2="544" y2="500" gradientUnits="userSpaceOnUse">
      <stop stop-color="#FFFFFF" stop-opacity="0"/>
      <stop offset=".48" stop-color="#FFFFFF" stop-opacity=".9"/>
      <stop offset="1" stop-color="#FFFFFF" stop-opacity="0"/>
    </linearGradient>
    <linearGradient id="presence_fade" x1="544" y1="160" x2="544" y2="480" gradientUnits="userSpaceOnUse">
      <stop stop-color="#FFFFFF" stop-opacity=".78"/>
      <stop offset="1" stop-color="#FFFFFF" stop-opacity=".04"/>
    </linearGradient>
    <filter id="soft_glow" x="-120%" y="-120%" width="340%" height="340%" color-interpolation-filters="sRGB">
      <feGaussianBlur stdDeviation="11"/>
    </filter>
  </defs>
  <rect width="1088" height="680" fill="url(#background_vignette)"/>
  
      <g id="sprint_stack">
        
    <g opacity="0.44">
      <rect x="164" y="156" width="674" height="82" rx="41" fill="#0D0D0F" stroke="#3C3C41" stroke-width="2.5"/>
      <rect x="208" y="189" width="169" height="16" rx="8" fill="#2C2C30"/><rect x="401" y="189" width="169" height="16" rx="8" fill="#74747A"/><rect x="594" y="189" width="169" height="16" rx="8" fill="#2C2C30"/>
    </g>
  
        
    <g opacity="0.68">
      <rect x="204" y="254" width="720" height="92" rx="46" fill="#0D0D0F" stroke="#3C3C41" stroke-width="2.5"/>
      <rect x="248" y="292" width="132" height="16" rx="8" fill="#2C2C30"/><rect x="404" y="292" width="132" height="16" rx="8" fill="#2C2C30"/><rect x="560" y="292" width="132" height="16" rx="8" fill="#74747A"/><rect x="716" y="292" width="132" height="16" rx="8" fill="#2C2C30"/>
    </g>
  
        
    <g opacity="1">
      <rect x="124" y="364" width="820" height="112" rx="56" fill="#0D0D0F" stroke="#3C3C41" stroke-width="2.5"/>
      <rect x="168" y="412" width="121" height="16" rx="8" fill="#2C2C30"/><rect x="313" y="412" width="121" height="16" rx="8" fill="#2C2C30"/><rect x="458" y="412" width="121" height="16" rx="8" fill="#2C2C30"/><rect x="603" y="412" width="121" height="16" rx="8" fill="#74747A"/><rect x="748" y="412" width="121" height="16" rx="8" fill="#2C2C30"/>
    </g>
  
      </g>
      <g id="capacity_marker">
        <rect x="728" y="170" width="7" height="306" rx="3.5" fill="#F1F1F3"/>
        <circle cx="731.5" cy="364" r="18" fill="#0B0B0C" stroke="#F1F1F3" stroke-width="4"/>
      </g>
      <g id="sprint_agents">
        
    <g opacity="0.72">
      <circle cx="418" cy="420" r="49" fill="url(#agent_aura)" filter="url(#soft_glow)"/>
      <circle cx="418" cy="420" r="30" fill="url(#agent_core)" stroke="#FFFFFF" stroke-opacity=".28" stroke-width="1.5"/>
      <circle cx="409.6" cy="411" r="10" fill="url(#agent_specular)"/>
    </g>
  
        
    <g opacity="1">
      <circle cx="608" cy="420" r="59" fill="url(#agent_aura)" filter="url(#soft_glow)"/>
      <circle cx="608" cy="420" r="36" fill="url(#agent_core)" stroke="#FFFFFF" stroke-opacity=".28" stroke-width="1.5"/>
      <circle cx="597.92" cy="409.2" r="12" fill="url(#agent_specular)"/>
    </g>
  
      </g>
    
</svg>
