<svg xmlns="http://www.w3.org/2000/svg" width="1088" height="680" viewBox="0 0 1088 680" fill="none">
  <title>Exports and webhooks</title>
  <desc>Minimal charcoal enterprise product illustration with white focal geometry.</desc>
  <defs>
    <radialGradient id="background_vignette" cx="0" cy="0" r="1" gradientUnits="userSpaceOnUse" gradientTransform="translate(544 330) rotate(90) scale(420 680)">
      <stop offset="0" stop-color="#121214"/>
      <stop offset=".62" stop-color="#0B0B0C"/>
      <stop offset="1" stop-color="#080809"/>
    </radialGradient>
    <radialGradient id="agent_core" cx="0" cy="0" r="1" gradientUnits="objectBoundingBox" gradientTransform="translate(.34 .28) rotate(45) scale(.78)">
      <stop offset="0" stop-color="#FFFFFF"/>
      <stop offset=".16" stop-color="#F4F5F7"/>
      <stop offset=".38" stop-color="#C8CBD1"/>
      <stop offset=".62" stop-color="#797C84"/>
      <stop offset=".82" stop-color="#37393F"/>
      <stop offset="1" stop-color="#15161A"/>
    </radialGradient>
    <radialGradient id="agent_aura" cx="0" cy="0" r="1" gradientUnits="objectBoundingBox" gradientTransform="translate(.5 .5) scale(.5)">
      <stop offset="0" stop-color="#FFFFFF" stop-opacity=".46"/>
      <stop offset=".36" stop-color="#E6E7EA" stop-opacity=".22"/>
      <stop offset=".7" stop-color="#A4A7AF" stop-opacity=".08"/>
      <stop offset="1" stop-color="#90939B" stop-opacity="0"/>
    </radialGradient>
    <radialGradient id="agent_specular" cx="0" cy="0" r="1" gradientUnits="objectBoundingBox" gradientTransform="translate(.5 .5) scale(.5)">
      <stop offset="0" stop-color="#FFFFFF" stop-opacity=".94"/>
      <stop offset=".36" stop-color="#FFFFFF" stop-opacity=".4"/>
      <stop offset="1" stop-color="#FFFFFF" stop-opacity="0"/>
    </radialGradient>
    <radialGradient id="scan_glow" cx="0" cy="0" r="1" gradientUnits="objectBoundingBox" gradientTransform="translate(.5 .5) scale(.5)">
      <stop offset="0" stop-color="#FFFFFF" stop-opacity=".22"/>
      <stop offset="1" stop-color="#FFFFFF" stop-opacity="0"/>
    </radialGradient>
    <linearGradient id="scan_fade" x1="544" y1="210" x2="544" y2="500" gradientUnits="userSpaceOnUse">
      <stop stop-color="#FFFFFF" stop-opacity="0"/>
      <stop offset=".48" stop-color="#FFFFFF" stop-opacity=".9"/>
      <stop offset="1" stop-color="#FFFFFF" stop-opacity="0"/>
    </linearGradient>
    <linearGradient id="presence_fade" x1="544" y1="160" x2="544" y2="480" gradientUnits="userSpaceOnUse">
      <stop stop-color="#FFFFFF" stop-opacity=".78"/>
      <stop offset="1" stop-color="#FFFFFF" stop-opacity=".04"/>
    </linearGradient>
    <filter id="soft_glow" x="-120%" y="-120%" width="340%" height="340%" color-interpolation-filters="sRGB">
      <feGaussianBlur stdDeviation="11"/>
    </filter>
  </defs>
  <rect width="1088" height="680" fill="url(#background_vignette)"/>
  
      <g id="event_log">
        
    <rect x="364" y="168" width="360" height="342" rx="34"
      fill="#0D0D0F" stroke="#3A3A3F" stroke-width="2.5" opacity="1"/>
  
        <circle cx="430" cy="256" r="8" fill="#4E4E54"/>
        <rect x="456" y="249" width="186" height="14" rx="7" fill="#2E2E32"/>
        <circle cx="430" cy="318" r="8" fill="#696970"/>
        <rect x="456" y="311" width="150" height="14" rx="7" fill="#3A3A3F"/>
        <circle cx="430" cy="380" r="8" fill="#F0F0F2"/>
        <rect x="456" y="373" width="194" height="14" rx="7" fill="#7A7A80"/>
        <circle cx="430" cy="442" r="8" fill="#414146"/>
        <rect x="456" y="435" width="124" height="14" rx="7" fill="#29292D"/>
      </g>
      <g id="file_export">
        <path d="M226 282H326L360 316V438H226V282Z" fill="#0D0D0F" stroke="#5B5B61" stroke-width="3" stroke-linejoin="round"/>
        <path d="M326 282V316H360" stroke="#5B5B61" stroke-width="3" stroke-linejoin="round"/>
        <path d="M254 354H328M254 386H316" stroke="#6F6F75" stroke-width="8" stroke-linecap="round"/>
        <path d="M364 380H332" stroke="#F0F0F2" stroke-width="4" stroke-linecap="round"/>
        <path d="M344 368L332 380L344 392" stroke="#F0F0F2" stroke-width="4" stroke-linecap="round" stroke-linejoin="round"/>
      </g>
      <g id="webhook_fanout">
        <path d="M730 380H772" stroke="#F0F0F2" stroke-width="4" stroke-linecap="round"/>
        <circle cx="812" cy="380" r="12" fill="#F0F0F2"/>
        <path d="M812 380C860 380 874 346 906 326M812 380C860 380 874 414 906 434" stroke="#55555B" stroke-width="4" stroke-linecap="round"/>
        <circle cx="920" cy="318" r="18" fill="#0B0B0C" stroke="#76767C" stroke-width="3"/>
        <circle cx="920" cy="442" r="18" fill="#0B0B0C" stroke="#76767C" stroke-width="3"/>
      </g>
    
</svg>
